<?xml version="1.0" ?>
<!DOCTYPE svg PUBLIC '-//W3C//DTD SVG 1.1//EN' 'http://www.w3.org/Graphics/SVG/1.1/DTD/svg11.dtd'><svg height="63.977px"
  id="Layer_1" style="enable-background:new 0 0 64 63.977;" version="1.1" viewBox="0 0 64 63.977" width="64px"
  xml:space="preserve" xmlns="http://www.w3.org/2000/svg" xmlns:xlink="http://www.w3.org/1999/xlink">
  <g id="Shape_42_">
    <g>
      <ellipse cx="32" cy="31.988" rx="32" ry="31.988" style="fill:#ffffff;" />
    </g>
  </g>
  <g id="Spotify_Logo">
    <g>
      <path
        d="M46.908,26.455c-5.071-3.067-12.014-4.466-18.611-4.466    c-3.887,0-7.462,0.453-10.665,1.426c-0.816,0.248-1.573,0.954-1.573,2.213c0,1.233,0.92,2.211,2.118,2.211    c0.414,0,0.826-0.169,1.152-0.254c2.835-0.792,5.93-1.111,8.977-1.111c6.104,0,12.416,1.384,16.482,3.896    c0.429,0.242,0.7,0.356,1.157,0.356c1.136,0,2.12-0.906,2.12-2.168C48.065,27.455,47.591,26.854,46.908,26.455z M43.884,34.21    c-4.474-2.759-10.163-4.267-16.045-4.267c-3.754,0-6.333,0.55-8.859,1.266c-0.935,0.271-1.397,0.948-1.397,1.933    c0,1.003,0.788,1.814,1.755,1.814c0.41,0,0.655-0.133,1.094-0.258c2.032-0.558,4.488-0.967,7.334-0.967    c5.547,0,10.612,1.483,14.268,3.718c0.332,0.199,0.639,0.4,1.126,0.4c0.977,0,1.751-0.809,1.751-1.811    C44.909,35.214,44.634,34.653,43.884,34.21z M41.217,40.992c-3.771-2.329-8.152-3.491-13.069-3.491    c-2.871,0-5.635,0.372-8.41,1.024c-0.678,0.133-1.223,0.616-1.223,1.59c0,0.755,0.569,1.455,1.423,1.455    c0.276,0,0.739-0.147,1.107-0.23c2.264-0.483,4.684-0.801,7.088-0.801c4.309,0,8.369,1.065,11.626,3.095    c0.34,0.213,0.587,0.344,0.951,0.344c0.738,0,1.397-0.614,1.397-1.448C42.107,41.674,41.778,41.328,41.217,40.992z"
        style="fill-rule:evenodd;clip-rule:evenodd;fill:#000000;" />
    </g>
  </g>
  <g />
  <g />
  <g />
  <g />
  <g />
  <g />
  <g />
  <g />
  <g />
  <g />
  <g />
  <g />
  <g />
  <g />
  <g />
</svg>